<?xml version="1.0" standalone="no"?> <!DOCTYPE svg PUBLIC "-//W3C//DTD SVG 20010904//EN" "http://www.w3.org/TR/2001/REC-SVG-20010904/DTD/svg10.dtd"> <svg version="1.0" xmlns="http://www.w3.org/2000/svg" width="220.000000pt" height="230.000000pt" viewBox="0 0 220.000000 230.000000" preserveAspectRatio="xMidYMid meet"> <g transform="translate(0.000000,230.000000) scale(0.100000,-0.100000)" fill="#ffffff" stroke="none"> <path d="M955 2155 l-7 -71 -94 -30 -95 -31 -41 51 c-23 28 -43 52 -44 54 -1 2 -48 -31 -103 -72 -56 -41 -108 -79 -117 -84 -13 -7 -9 -18 24 -72 l38 -63 -28 -31 c-16 -17 -43 -52 -59 -78 -17 -27 -36 -48 -43 -48 -6 0 -36 7 -66 15 -30 8 -56 15 -57 15 -3 0 -83 -257 -83 -266 0 -5 27 -20 60 -32 l60 -24 0 -104 0 -105 -60 -26 c-33 -14 -60 -29 -60 -33 0 -28 83 -260 93 -260 7 0 37 7 67 15 30 8 55 13 55 12 10 -19 97 -136 109 -146 13 -11 10 -20 -24 -75 l-38 -63 109 -79 c60 -43 113 -80 117 -81 4 -1 26 22 50 51 l44 53 56 -23 c31 -12 74 -26 95 -29 32 -6 37 -11 37 -35 0 -15 3 -48 6 -74 l7 -46 137 0 137 0 7 46 c3 26 6 59 6 74 0 24 5 29 38 35 20 3 62 17 93 29 l56 22 44 -52 c24 -29 46 -53 49 -53 3 -1 46 29 96 66 50 38 100 75 111 83 l21 15 -37 60 -37 60 43 53 c23 29 50 66 58 83 11 20 21 28 33 25 53 -16 113 -28 118 -24 2 3 24 63 47 135 l43 129 -61 26 -60 26 -3 105 -3 105 61 24 c33 12 60 27 60 32 0 9 -80 266 -83 266 -1 0 -27 -7 -57 -15 -30 -8 -60 -15 -65 -15 -6 0 -34 34 -63 75 -29 41 -57 75 -62 75 -6 0 1 18 15 40 14 22 25 43 25 47 0 3 8 15 17 26 17 18 17 19 0 28 -9 5 -61 43 -116 84 l-100 74 -48 -55 -48 -55 -50 20 c-27 12 -69 26 -92 31 -38 10 -43 14 -43 39 0 16 -3 48 -6 72 l-6 44 -138 0 -139 0 -6 -70z m259 3 c3 -24 7 -56 8 -72 3 -26 8 -30 68 -46 36 -9 86 -26 112 -38 38 -16 49 -18 55 -8 5 7 24 32 44 54 l36 42 91 -68 91 -69 -35 -57 -34 -58 49 -61 c26 -34 57 -78 67 -98 l19 -35 67 16 66 16 32 -100 c18 -56 34 -106 36 -112 3 -6 -23 -22 -56 -35 l-61 -25 -2 -122 c-1 -67 1 -122 4 -122 4 0 31 -11 62 -24 l55 -25 -34 -107 c-19 -59 -35 -109 -37 -110 -1 -1 -31 4 -66 12 -35 8 -64 14 -65 12 -2 -2 -13 -21 -27 -43 -13 -22 -43 -64 -67 -93 -40 -49 -42 -55 -30 -75 8 -12 24 -38 36 -58 l22 -37 -91 -68 -92 -67 -46 51 -46 52 -60 -25 c-33 -13 -84 -29 -112 -35 -53 -11 -53 -12 -53 -49 0 -21 -3 -53 -6 -70 -6 -29 -9 -31 -50 -31 -24 0 -44 2 -44 3 0 2 13 28 30 58 16 30 30 57 30 62 0 4 -13 7 -30 7 -28 0 -30 2 -30 40 0 22 5 40 10 40 6 0 10 9 10 20 0 13 -7 20 -19 20 -11 0 -23 5 -27 11 -5 9 1 10 20 5 15 -4 26 -2 26 4 0 5 -4 10 -10 10 -5 0 -10 8 -10 18 0 14 14 20 76 30 220 35 417 222 470 448 33 143 6 318 -71 450 -44 76 -151 176 -233 217 -235 117 -488 75 -673 -113 -110 -111 -169 -257 -169 -415 0 -171 53 -297 175 -421 62 -63 97 -89 155 -117 78 -36 156 -57 215 -57 28 0 35 -4 35 -20 0 -11 -4 -20 -10 -20 -21 0 -9 -31 15 -40 36 -14 31 -24 -7 -16 -29 5 -31 4 -15 -8 11 -9 17 -27 17 -55 l0 -41 -40 0 -40 0 40 -52 c22 -29 40 -56 40 -60 0 -5 -24 -8 -54 -8 -61 0 -66 7 -66 92 l0 47 -52 11 c-29 6 -80 22 -113 35 l-60 25 -46 -52 -46 -51 -91 68 c-86 64 -91 70 -79 89 7 12 23 38 36 59 l23 37 -34 38 c-19 21 -50 63 -69 95 -19 31 -38 57 -44 57 -5 0 -35 -7 -65 -15 -30 -8 -55 -13 -57 -11 -2 1 -18 51 -37 110 l-34 107 55 25 c31 13 58 24 62 24 3 0 5 55 4 122 l-2 122 -61 25 c-33 13 -59 29 -56 35 2 6 18 56 36 112 l32 100 51 -13 c72 -18 80 -17 101 18 10 16 40 59 67 95 l50 64 -36 56 c-20 31 -35 57 -33 59 2 1 43 32 92 68 l89 67 36 -42 c20 -22 39 -47 44 -54 6 -10 17 -8 55 8 26 12 76 29 112 38 60 16 65 20 68 46 1 16 5 48 8 72 l5 42 109 0 109 0 5 -42z m30 -314 c91 -23 173 -71 247 -144 119 -118 172 -243 173 -410 0 -114 -15 -184 -61 -275 -23 -45 -72 -115 -98 -140 -37 -35 -54 -45 -59 -36 -4 5 7 18 24 27 16 10 32 24 34 31 8 19 -40 119 -65 136 -11 9 -18 20 -15 25 3 6 -5 19 -18 30 l-25 19 35 34 34 33 -6 -32 c-4 -18 -5 -32 -2 -32 2 0 35 32 73 72 67 69 66 77 -2 14 l-33 -30 0 35 c-1 30 -2 32 -13 17 -7 -9 -32 -37 -55 -62 -38 -41 -43 -44 -66 -33 -14 7 -26 16 -26 20 0 4 15 30 34 58 33 50 34 50 42 25 9 -23 12 -20 77 66 77 101 86 133 11 38 l-49 -62 -8 34 c-7 23 -11 28 -16 17 -14 -36 -96 -159 -106 -159 -5 1 -20 6 -32 13 l-21 12 27 59 26 59 13 -28 c7 -15 14 -26 16 -24 14 16 137 251 134 255 -3 2 -31 -38 -63 -91 -31 -52 -61 -95 -65 -95 -4 0 -11 9 -16 21 -8 17 -14 8 -44 -63 -37 -85 -55 -102 -83 -73 -11 11 -36 15 -91 15 -42 0 -76 -4 -76 -8 0 -9 -79 -36 -85 -30 -8 9 -65 148 -65 160 0 7 -9 2 -20 -12 -10 -14 -20 -23 -22 -20 -3 3 -29 46 -59 97 -67 115 -87 123 -24 11 26 -46 56 -104 68 -130 12 -26 25 -48 29 -48 3 0 11 12 16 28 10 27 10 26 36 -30 l26 -57 -24 -26 -23 -25 -54 87 c-49 79 -54 84 -57 58 -2 -15 2 -32 10 -36 8 -5 9 -9 2 -9 -7 0 -38 31 -69 70 -31 39 -59 70 -62 70 -7 0 8 -21 77 -113 57 -76 65 -84 68 -62 2 14 6 25 10 25 7 -1 65 -91 60 -95 -52 -36 -47 -37 -95 18 -25 29 -50 57 -55 62 -6 6 -7 -5 -3 -30 l7 -40 -38 36 c-74 67 -79 63 -9 -9 38 -40 72 -72 76 -72 3 0 4 12 1 28 l-5 27 31 -28 c36 -34 35 -47 -3 -87 -17 -17 -30 -36 -30 -43 0 -7 -8 -27 -18 -45 -10 -18 -15 -37 -12 -42 3 -6 2 -17 -2 -25 -18 -31 -124 133 -157 243 -89 303 90 637 389 723 77 23 218 24 299 3z m-78 -675 c-3 -17 -6 -48 -6 -69 l0 -37 -52 2 c-29 1 -53 6 -54 11 -1 5 -4 35 -7 67 l-4 57 65 0 65 0 -7 -31z m-136 -26 c0 -21 3 -48 6 -59 5 -17 -1 -24 -27 -33 -18 -6 -33 -10 -34 -9 -21 28 -56 101 -50 106 9 10 67 30 88 31 13 1 17 -7 17 -36z m223 21 c26 -9 47 -19 47 -23 0 -7 -39 -92 -45 -99 -2 -2 -21 2 -43 8 -40 10 -41 11 -36 48 9 62 14 82 22 82 5 0 29 -7 55 -16z m-321 -82 l27 -47 -31 -18 -32 -18 -38 39 -39 38 38 27 c21 14 40 26 43 26 3 1 17 -20 32 -47z m435 13 c23 -14 43 -28 43 -32 0 -3 -15 -22 -34 -43 l-34 -37 -33 20 c-19 11 -35 22 -37 23 -4 2 41 94 47 94 2 0 24 -11 48 -25z m-514 -74 l28 -29 -26 -26 -27 -27 -33 29 -33 30 26 26 c15 14 29 26 32 26 3 0 18 -13 33 -29z m398 -3 c72 -33 128 -84 163 -148 33 -60 33 -59 -72 -111 -114 -55 -232 -70 -355 -44 -71 15 -196 70 -204 91 -13 35 85 167 152 202 96 50 221 54 316 10z m209 -37 c0 -4 -13 -19 -29 -34 l-29 -25 -22 23 -22 24 28 36 28 37 23 -26 c13 -15 23 -31 23 -35z m-658 -39 c16 -13 16 -16 1 -38 -18 -29 -21 -29 -52 -5 -23 17 -23 19 -6 44 17 27 25 27 57 -1z m688 -28 c0 -7 -12 -20 -27 -29 -25 -17 -27 -17 -40 1 -11 16 -10 21 14 46 24 25 27 26 39 10 7 -9 14 -22 14 -28z m-717 -74 c-6 -24 -11 -25 -34 -4 -9 8 -15 23 -12 34 5 18 7 18 28 4 15 -10 21 -21 18 -34z m365 -405 c-12 -25 -26 -45 -30 -45 -4 0 -8 20 -8 45 0 43 1 45 30 45 l30 0 -22 -45z"/> <path d="M1010 2030 c0 -5 7 -10 15 -10 11 0 15 -11 15 -40 0 -22 5 -40 10 -40 6 0 10 18 10 40 0 29 4 40 15 40 8 0 15 5 15 10 0 6 -18 10 -40 10 -22 0 -40 -4 -40 -10z"/> <path d="M1108 1991 l-3 -49 38 -4 c42 -4 52 9 10 14 -39 4 -42 28 -4 28 17 0 31 5 31 10 0 6 -11 10 -25 10 -14 0 -25 5 -25 10 0 6 11 10 25 10 14 0 25 5 25 10 0 6 -15 10 -34 10 -34 0 -34 -1 -38 -49z"/> <path d="M965 1998 c11 -51 11 -52 -7 -56 -12 -2 -19 5 -23 25 -11 47 -14 54 -24 48 -6 -3 -5 -22 3 -48 13 -46 42 -60 69 -33 12 13 13 23 5 56 -12 48 -33 55 -23 8z"/> <path d="M843 1992 c-32 -15 -47 -37 -18 -26 14 6 18 -1 40 -64 3 -7 9 -11 14 -7 6 3 4 20 -5 41 -12 28 -12 39 -3 50 18 21 8 23 -28 6z"/> <path d="M1292 1988 c-16 -16 -15 -63 2 -78 39 -31 96 25 70 68 -14 21 -55 27 -72 10z m58 -31 c0 -28 -17 -47 -36 -40 -14 5 -19 44 -7 56 16 17 43 6 43 -16z"/> <path d="M778 1964 c-8 -7 33 -94 44 -94 12 0 9 11 -15 58 -13 24 -26 40 -29 36z"/> <path d="M1392 1924 c-25 -50 -26 -54 -13 -54 5 0 13 9 16 20 5 17 10 18 27 9 11 -6 23 -7 26 -3 4 4 3 8 -3 11 -5 2 -17 8 -25 13 -23 14 -3 24 25 12 35 -16 32 4 -3 22 -29 15 -29 15 -50 -30z"/> <path d="M718 1932 c-32 -19 -37 -36 -9 -27 15 5 22 -1 32 -30 7 -19 17 -35 21 -35 13 0 9 20 -9 52 -14 23 -15 32 -5 35 13 5 17 24 5 22 -5 0 -20 -8 -35 -17z"/> <path d="M639 1872 c-35 -29 -19 -56 27 -47 27 5 35 3 32 -7 -3 -7 -15 -15 -29 -19 -21 -6 -22 -7 -6 -14 25 -10 61 24 51 49 -5 14 -14 16 -41 11 -27 -5 -34 -3 -31 7 3 7 12 12 22 10 9 -2 16 2 16 7 0 19 -18 21 -41 3z"/> <path d="M1550 1861 c0 -5 6 -11 13 -14 8 -3 2 -15 -17 -36 -16 -17 -26 -34 -22 -38 4 -5 20 7 35 24 21 25 30 30 39 21 6 -6 15 -9 18 -5 3 3 -7 17 -22 31 -31 27 -44 32 -44 17z"/> <path d="M595 1790 c31 -33 30 -35 -11 -20 -49 19 -57 4 -18 -35 40 -41 61 -39 23 1 l-24 26 23 -6 c12 -3 31 -9 42 -12 29 -8 24 12 -11 46 -41 39 -61 39 -24 0z"/> <path d="M1598 1766 l-38 -33 30 -28 c32 -30 42 -25 13 7 -12 14 -14 21 -5 30 8 8 16 5 31 -13 11 -13 20 -20 21 -15 0 5 -8 18 -17 28 -12 13 -13 22 -6 29 8 8 15 4 27 -12 8 -13 19 -20 23 -16 4 4 -4 18 -18 32 l-24 24 -37 -33z"/> <path d="M506 1731 c-7 -11 72 -67 81 -57 3 3 4 7 2 9 -2 2 -21 15 -41 30 -20 15 -39 23 -42 18z"/> <path d="M1668 1699 c-32 -18 -42 -48 -22 -70 18 -20 44 -26 44 -9 0 6 -6 10 -14 10 -26 0 -29 21 -8 43 17 17 24 18 36 8 8 -7 12 -19 9 -27 -3 -8 0 -14 6 -14 19 0 12 49 -8 60 -23 12 -22 12 -43 -1z"/> <path d="M569 1613 c-13 -16 -12 -17 4 -4 9 7 17 15 17 17 0 8 -8 3 -21 -13z"/> <path d="M1712 1599 c-24 -10 -41 -23 -37 -29 4 -7 13 -7 26 0 27 15 40 -17 14 -36 -30 -22 -12 -25 33 -6 23 9 42 23 42 30 0 10 -5 10 -20 2 -15 -8 -21 -6 -30 9 -8 16 -6 21 10 26 11 3 20 11 20 16 0 12 -8 11 -58 -12z"/> <path d="M509 1577 c-11 -24 -13 -24 -45 -11 -39 16 -44 17 -44 6 0 -7 68 -42 82 -42 9 0 31 60 25 67 -4 3 -11 -6 -18 -20z"/> <path d="M397 1503 c-12 -12 -7 -19 34 -52 43 -35 58 -36 37 -2 -12 20 -10 24 12 41 l25 20 -51 0 c-28 0 -54 -3 -57 -7z m53 -29 c0 -14 -3 -14 -15 -4 -8 7 -15 14 -15 16 0 2 7 4 15 4 8 0 15 -7 15 -16z"/> <path d="M1748 1498 c-21 -6 -38 -15 -38 -20 0 -6 6 -8 13 -5 6 2 23 8 37 12 l25 7 -27 -29 c-23 -24 -37 -54 -25 -53 22 2 87 29 85 36 -2 5 -7 7 -13 5 -46 -17 -50 -14 -22 16 42 45 37 50 -35 31z"/> <path d="M370 1411 c0 -6 15 -11 33 -13 l32 -3 -37 -17 c-45 -20 -49 -38 -10 -38 15 0 37 -3 50 -6 12 -4 22 -2 22 4 0 6 -15 12 -32 14 l-33 4 38 17 c20 10 37 21 37 26 0 5 -17 11 -37 15 -52 8 -63 8 -63 -3z"/> <path d="M1750 1380 c-19 -19 -18 -40 3 -67 14 -19 51 -16 70 5 22 24 21 38 -3 62 -25 25 -45 25 -70 0z m65 -30 c0 -30 -35 -40 -55 -15 -10 12 -10 18 0 30 20 25 55 15 55 -15z"/> <path d="M372 1298 c-15 -15 -15 -51 0 -66 7 -7 24 -12 38 -12 31 0 50 17 50 45 0 28 -19 45 -50 45 -14 0 -31 -5 -38 -12z m68 -33 c0 -21 -5 -25 -30 -25 -22 0 -30 5 -30 18 0 25 9 32 37 32 18 0 23 -5 23 -25z"/> <path d="M1740 1245 c0 -19 5 -35 10 -35 6 0 9 3 9 8 -6 38 1 45 41 38 29 -4 40 -3 40 6 0 8 -18 14 -50 16 l-50 3 0 -36z"/> <path d="M388 1192 c-10 -2 -18 -8 -18 -14 0 -6 10 -8 23 -4 12 3 34 6 50 6 15 0 27 5 27 10 0 10 -41 11 -82 2z"/> <path d="M1742 1178 c-17 -17 -15 -65 4 -72 35 -13 64 -6 76 19 9 21 8 28 -7 45 -20 22 -55 26 -73 8z m63 -33 c0 -13 -8 -21 -24 -23 -28 -4 -46 11 -37 33 9 25 61 16 61 -10z"/> <path d="M382 1110 c6 -22 15 -40 20 -40 5 0 7 8 3 19 -5 15 1 19 35 25 22 3 40 11 40 16 0 12 -7 12 -48 1 -26 -8 -34 -7 -39 5 -12 31 -20 12 -11 -26z"/> <path d="M447 1062 c-20 -21 -37 -41 -37 -44 0 -3 25 -8 55 -10 34 -2 54 1 51 7 -2 6 -8 9 -14 8 -18 -4 -37 38 -22 47 7 4 11 13 9 19 -3 7 -21 -6 -42 -27z m23 -33 c0 -5 -10 -9 -21 -9 -18 0 -19 2 -9 15 12 15 30 12 30 -6z"/> <path d="M1706 1058 c-20 -28 -20 -42 0 -59 14 -11 18 -10 30 6 17 23 10 33 -11 15 -13 -10 -15 -9 -15 9 0 25 26 38 48 24 23 -14 25 -29 6 -47 -20 -20 -11 -34 11 -16 22 18 19 67 -4 80 -30 16 -48 12 -65 -12z"/> <path d="M478 969 c-21 -11 -38 -24 -38 -29 0 -14 7 -13 35 6 29 19 31 13 8 -27 -9 -15 -14 -31 -11 -34 7 -8 88 36 88 48 0 11 -14 8 -38 -9 -25 -17 -27 -10 -7 26 26 46 19 49 -37 19z"/> <path d="M1656 961 c-4 -5 3 -15 15 -21 11 -6 25 -25 31 -42 7 -21 14 -26 21 -19 8 8 8 14 -1 23 -19 19 -14 28 13 28 14 0 25 5 25 10 0 6 -17 10 -38 10 -21 0 -43 5 -49 11 -7 7 -13 7 -17 0z"/> <path d="M680 796 c0 -2 7 -7 16 -10 8 -3 12 -2 9 4 -6 10 -25 14 -25 6z"/> <path d="M1437 754 c-2 -3 -1 -21 3 -40 7 -30 6 -35 -8 -32 -10 2 -17 12 -17 23 0 22 -22 30 -44 16 -11 -7 -11 -15 0 -45 13 -37 35 -52 24 -16 -7 21 4 27 21 10 15 -15 41 -2 47 22 4 14 11 19 21 15 9 -4 16 -3 15 1 0 11 -56 52 -62 46z m33 -28 c0 -3 -4 -8 -10 -11 -5 -3 -10 -1 -10 4 0 6 5 11 10 11 6 0 10 -2 10 -4z m-69 -29 c-13 -13 -26 -3 -16 12 3 6 11 8 17 5 6 -4 6 -10 -1 -17z"/> <path d="M721 714 c-12 -20 -19 -39 -15 -43 4 -3 9 0 11 7 8 21 21 13 26 -15 4 -26 4 -26 6 4 0 19 8 36 18 42 10 5 15 13 11 17 -4 4 -15 1 -24 -7 -15 -12 -16 -11 -10 9 11 33 1 27 -23 -14z"/> <path d="M781 694 c-20 -44 -10 -74 25 -74 9 0 35 72 29 78 -3 3 -11 -9 -17 -26 -7 -18 -16 -32 -20 -32 -15 0 -16 18 -3 43 7 15 10 29 6 32 -5 2 -13 -7 -20 -21z"/> <path d="M1320 698 c-22 -8 -23 -10 -7 -19 9 -6 17 -19 17 -29 0 -10 5 -22 10 -25 13 -8 13 25 0 45 -6 9 -5 17 3 22 19 12 4 16 -23 6z"/> <path d="M846 666 c-3 -13 -9 -31 -12 -40 -3 -9 -1 -16 5 -16 6 0 11 7 11 15 0 24 17 17 24 -10 4 -14 10 -25 15 -25 5 0 7 9 4 20 -3 11 0 27 7 35 15 18 7 29 -26 39 -17 5 -23 2 -28 -18z m44 -6 c0 -5 -7 -10 -15 -10 -8 0 -15 5 -15 10 0 6 7 10 15 10 8 0 15 -4 15 -10z"/> <path d="M1244 674 c-15 -6 -5 -64 13 -71 8 -3 24 0 36 6 21 11 20 11 -5 6 -34 -7 -37 12 -5 26 21 9 20 9 -5 6 -34 -5 -36 6 -5 21 20 10 20 11 2 11 -11 -1 -25 -3 -31 -5z"/> <path d="M916 639 c-6 -33 7 -59 30 -59 15 0 23 11 34 50 5 18 5 30 -1 30 -5 0 -12 -13 -15 -30 -4 -17 -13 -30 -21 -30 -12 0 -14 8 -9 35 4 19 3 35 -2 35 -5 0 -12 -14 -16 -31z"/> <path d="M1200 650 c0 -11 -7 -20 -15 -20 -8 0 -15 7 -15 15 0 8 -5 15 -11 15 -6 0 -8 -7 -5 -16 3 -9 6 -27 6 -40 0 -13 5 -24 11 -24 6 0 8 9 4 20 -5 16 -2 20 14 20 12 0 21 -7 21 -15 0 -8 5 -15 11 -15 6 0 8 7 5 16 -3 9 -6 27 -6 40 0 13 -4 24 -10 24 -5 0 -10 -9 -10 -20z"/> <path d="M1000 643 c0 -10 -3 -28 -6 -40 -4 -14 -2 -23 5 -23 6 0 11 7 11 15 0 21 17 19 30 -5 6 -11 15 -20 21 -20 5 0 2 11 -7 25 -16 24 -16 27 2 47 21 23 3 17 -30 -11 -18 -15 -18 -15 -12 7 5 13 3 22 -3 22 -6 0 -11 -8 -11 -17z"/> <path d="M1088 1839 c-6 -17 2 -59 11 -59 8 0 6 58 -2 66 -3 3 -7 0 -9 -7z"/> <path d="M996 1818 c7 -23 6 -23 -15 -4 -11 11 -23 17 -25 15 -7 -8 7 -69 16 -69 5 0 6 10 2 23 -7 22 -6 22 15 3 11 -11 23 -17 25 -15 7 8 -7 69 -16 69 -5 0 -6 -10 -2 -22z"/> <path d="M1030 1821 c0 -6 6 -8 13 -5 8 3 14 -2 14 -11 0 -9 -6 -14 -14 -11 -14 6 -18 -9 -5 -18 14 -9 34 11 30 30 -3 20 -38 33 -38 15z"/> <path d="M1122 1805 c0 -16 2 -22 5 -12 2 9 2 23 0 30 -3 6 -5 -1 -5 -18z"/> <path d="M1157 1823 c-11 -10 -8 -41 4 -49 6 -3 18 1 27 9 13 13 13 19 2 31 -14 17 -23 20 -33 9z m19 -30 c-10 -10 -19 5 -10 18 6 11 8 11 12 0 2 -7 1 -15 -2 -18z"/> <path d="M1208 1795 c-3 -14 -1 -25 3 -25 5 0 9 7 9 15 0 24 20 17 21 -7 l0 -23 11 23 c12 25 12 27 -18 36 -17 5 -22 2 -26 -19z"/> <path d="M890 1793 c1 -19 22 -53 34 -53 4 0 1 10 -5 23 -7 12 -12 23 -11 25 6 8 0 22 -8 22 -5 0 -10 -8 -10 -17z"/> <path d="M1288 1793 c15 -6 16 -33 1 -33 -5 0 -7 5 -3 11 4 7 1 10 -6 7 -23 -7 -22 -25 0 -31 13 -3 23 0 27 9 7 19 -4 44 -19 43 -10 0 -10 -2 0 -6z"/> <path d="M1323 1760 c-14 -36 -1 -40 15 -5 14 31 15 35 4 35 -4 0 -13 -13 -19 -30z"/> <path d="M844 1756 c-8 -21 3 -36 27 -36 15 0 20 6 17 22 -4 27 -35 37 -44 14z m33 -22 c-9 -9 -28 6 -21 18 4 6 10 6 17 -1 6 -6 8 -13 4 -17z"/> <path d="M1375 1734 c-24 -37 -13 -40 14 -4 12 17 17 30 12 30 -5 0 -16 -12 -26 -26z"/> <path d="M1394 1709 c-9 -10 -12 -19 -6 -19 6 0 14 5 17 10 3 6 11 10 18 10 8 0 8 -3 -1 -12 -17 -17 -15 -33 3 -18 8 7 15 18 15 25 0 22 -27 25 -46 4z"/> <path d="M772 1711 c-12 -7 -12 -12 -1 -30 14 -22 29 -28 29 -12 0 6 -4 13 -10 16 -5 3 -10 11 -10 17 0 6 8 4 18 -5 26 -24 39 -21 17 3 -20 22 -24 23 -43 11z"/> <path d="M1441 1678 c-17 -27 -9 -33 13 -9 10 10 13 21 9 24 -5 3 -15 -3 -22 -15z"/> <path d="M724 1666 c-8 -21 13 -46 32 -39 20 8 13 47 -9 51 -9 2 -20 -4 -23 -12z m33 -22 c-9 -9 -28 6 -21 18 4 6 10 6 17 -1 6 -6 8 -13 4 -17z"/> <path d="M1450 1643 c-16 -17 -19 -25 -9 -21 9 4 22 1 28 -5 8 -8 15 -7 28 5 13 14 14 20 3 32 -17 21 -21 20 -50 -11z m50 3 c0 -2 -7 -9 -15 -16 -12 -10 -15 -10 -15 4 0 9 7 16 15 16 8 0 15 -2 15 -4z"/> <path d="M700 1625 c13 -14 28 -25 33 -25 6 0 0 11 -13 25 -13 14 -28 25 -33 25 -6 0 0 -11 13 -25z"/> <path d="M1075 1593 c-11 -21 -21 -42 -23 -46 -2 -5 3 -7 11 -5 9 2 16 0 16 -4 1 -5 1 -39 1 -78 0 -62 -2 -70 -19 -70 -30 0 -55 29 -40 46 6 8 19 13 28 12 9 -2 16 4 16 12 0 20 -43 15 -67 -7 -38 -34 -16 -70 47 -80 l37 -6 -4 -58 c-4 -59 -4 -59 23 -59 27 0 27 0 22 60 -6 60 -6 60 21 60 29 0 67 16 78 33 11 18 -15 57 -41 63 -14 3 -32 7 -38 10 -8 2 -13 -5 -13 -17 0 -11 4 -17 10 -14 13 8 50 -13 50 -29 0 -15 -21 -26 -50 -26 -19 0 -30 41 -30 117 0 34 3 41 15 37 8 -4 15 -4 15 0 0 6 -41 86 -44 86 -1 0 -11 -17 -21 -37z m30 -23 c3 -5 1 -10 -4 -10 -6 0 -11 5 -11 10 0 6 2 10 4 10 3 0 8 -4 11 -10z"/> <path d="M665 1596 c0 -13 3 -28 8 -32 15 -15 6 -24 -13 -14 -11 6 -20 7 -20 1 0 -9 23 -21 40 -21 18 0 20 33 3 46 -16 13 -15 14 11 8 l29 -7 -22 22 c-27 27 -37 27 -36 -3z"/> <path d="M1500 1604 c-11 -12 -10 -18 3 -32 16 -15 18 -15 34 0 13 14 14 20 3 32 -7 9 -16 16 -20 16 -4 0 -13 -7 -20 -16z m30 -14 c0 -5 -4 -10 -10 -10 -5 0 -10 5 -10 10 0 6 5 10 10 10 6 0 10 -4 10 -10z"/> <path d="M1538 1556 c-10 -7 -18 -17 -18 -21 0 -4 7 -2 15 5 12 10 19 10 27 2 8 -8 7 -13 -5 -18 -9 -3 -17 -13 -17 -22 0 -13 3 -12 20 3 11 10 20 14 20 10 0 -5 5 -4 11 2 8 8 5 17 -10 32 -24 24 -21 24 -43 7z"/> <path d="M610 1530 c0 -13 38 -32 55 -28 7 2 -2 11 -21 20 -19 10 -34 13 -34 8z"/> <path d="M590 1501 c0 -10 61 -34 68 -27 4 4 -51 36 -63 36 -3 0 -5 -4 -5 -9z"/> <path d="M1597 1483 c6 -16 5 -16 -11 -4 -11 9 -20 11 -27 4 -14 -14 14 -35 35 -27 18 7 21 29 6 39 -6 4 -7 -1 -3 -12z"/> <path d="M585 1462 c15 -16 65 -26 65 -13 0 6 -6 11 -12 11 -7 0 -24 3 -38 6 -17 5 -22 4 -15 -4z"/> <path d="M1593 1442 c-13 -2 -23 -8 -23 -13 0 -5 11 -7 25 -3 15 4 25 2 25 -5 0 -6 -9 -11 -20 -11 -11 0 -20 -5 -20 -11 0 -9 37 -4 49 7 12 11 -17 39 -36 36z"/> <path d="M585 1420 c-13 -22 7 -31 28 -13 20 17 20 17 13 -2 -6 -16 -5 -18 5 -7 11 10 10 14 0 25 -11 10 -14 10 -18 0 -3 -7 -9 -13 -14 -13 -6 0 -7 5 -4 10 3 6 4 10 1 10 -3 0 -8 -4 -11 -10z"/> <path d="M577 1374 c-4 -4 -7 -16 -7 -26 0 -13 7 -18 28 -17 l27 0 -25 11 -25 11 30 7 c17 4 25 8 18 9 -6 0 -18 3 -25 6 -8 3 -17 2 -21 -1z"/> <path d="M1590 1360 c0 -11 4 -20 10 -20 5 0 7 7 4 15 -4 9 0 15 9 15 9 0 18 -8 20 -17 4 -14 5 -12 6 5 1 17 -4 22 -24 22 -18 0 -25 -5 -25 -20z"/> <path d="M1603 1323 c-16 -6 -17 -30 -1 -39 7 -5 9 -2 5 9 -6 16 18 32 28 17 3 -4 -1 -10 -7 -13 -7 -2 -9 -8 -5 -13 9 -10 28 16 24 31 -4 12 -26 16 -44 8z"/> <path d="M550 1310 c0 -5 17 -10 38 -10 27 0 33 3 22 10 -20 13 -60 13 -60 0z"/> <path d="M1506 1107 c3 -10 9 -15 12 -12 3 3 0 11 -7 18 -10 9 -11 8 -5 -6z"/> <path d="M1833 531 c-138 -6 -143 -7 -170 -33 -24 -24 -25 -30 -15 -53 7 -14 12 -53 12 -86 l0 -60 -621 5 c-632 5 -649 6 -649 42 0 20 55 45 107 50 72 6 95 58 43 95 -21 15 -58 18 -258 24 -266 8 -269 7 -179 -66 28 -24 54 -44 56 -46 2 -1 -16 -20 -40 -41 -24 -22 -57 -51 -74 -66 l-30 -27 173 7 172 7 0 -76 c0 -64 3 -80 23 -102 l22 -26 700 0 700 1 28 30 c25 28 27 37 27 108 l0 77 145 -3 c114 -2 145 0 145 10 0 7 -32 35 -70 63 -39 27 -70 50 -70 50 0 1 29 23 65 49 36 27 64 53 62 60 -4 13 -99 15 -304 7z m243 -30 c-3 -4 -31 -25 -61 -47 l-56 -38 23 -18 c13 -10 42 -31 65 -46 24 -15 43 -29 43 -32 0 -3 -56 -4 -124 -2 -117 3 -124 4 -119 23 10 38 -21 66 -91 79 -76 14 -98 32 -72 58 11 11 40 19 89 23 116 9 309 10 303 0z m-1549 -34 c24 -24 6 -38 -59 -48 -71 -11 -103 -37 -102 -80 l1 -34 -134 -3 c-89 -2 -133 0 -133 7 0 6 3 11 8 11 4 0 27 18 52 40 l45 40 -25 21 c-14 12 -38 32 -55 46 l-30 24 208 -4 c178 -3 210 -6 224 -20z m1161 -109 c2 44 10 49 60 36 17 -5 22 -14 24 -43 l1 -36 4 38 c4 33 6 36 24 27 26 -14 24 -46 -3 -62 -13 -7 -47 -13 -75 -14 l-53 -1 2 56 1 56 7 -50 7 -50 1 43z m-586 -79 c540 -3 690 -1 699 9 24 23 29 12 29 -63 0 -67 -3 -79 -25 -100 l-24 -25 -673 0 c-584 0 -676 2 -695 15 -19 13 -22 27 -25 99 -3 72 -1 83 12 76 8 -4 324 -9 702 -11z"/> <path d="M1710 357 c0 -20 4 -37 8 -37 10 0 9 57 -1 67 -4 3 -7 -10 -7 -30z"/> <path d="M1742 350 c0 -19 2 -27 5 -17 2 9 2 25 0 35 -3 9 -5 1 -5 -18z"/> <path d="M1802 350 c0 -14 2 -19 5 -12 2 6 2 18 0 25 -3 6 -5 1 -5 -13z"/> <path d="M670 255 c0 -2 12 -11 28 -19 26 -15 23 -15 -57 -16 -66 0 -82 -3 -73 -12 7 -7 12 -18 12 -25 0 -19 -27 -4 -33 18 -3 10 -12 19 -20 19 -18 0 -32 -18 -22 -28 3 -3 10 0 15 8 5 8 12 11 17 7 7 -7 -8 -21 -32 -30 -5 -3 -7 -8 -2 -12 4 -5 13 -3 19 3 14 14 28 16 28 4 0 -5 -10 -14 -22 -20 -13 -6 -17 -11 -10 -11 7 -1 23 4 35 10 16 9 22 9 25 0 8 -23 20 -10 18 21 -1 24 4 33 17 36 14 3 17 -2 15 -25 -3 -25 0 -28 25 -25 15 1 27 -2 27 -8 0 -5 4 -10 8 -10 4 0 6 16 4 35 -3 27 -1 35 12 35 12 0 16 -9 16 -35 0 -19 5 -35 10 -35 6 0 8 13 5 29 -3 17 -1 33 5 36 6 3 -3 17 -19 31 -26 22 -51 31 -51 19z m8 -63 c2 -7 -6 -12 -17 -12 -21 0 -27 11 -14 24 9 9 26 2 31 -12z"/> <path d="M1300 251 c0 -5 10 -12 23 -16 17 -6 10 -10 -33 -15 -61 -7 -58 -13 6 -10 48 2 67 -16 39 -37 -22 -15 -35 -17 -35 -4 0 5 8 12 18 14 9 3 0 5 -21 6 l-38 1 20 -21 c15 -16 26 -20 46 -15 17 4 24 3 20 -4 -3 -5 -1 -10 4 -10 6 0 11 16 11 35 0 24 5 35 15 35 8 0 15 -8 15 -19 0 -22 25 -45 39 -37 5 4 12 2 16 -4 8 -14 52 -13 61 1 5 8 -1 10 -20 7 -31 -6 -47 11 -18 19 11 3 23 11 26 19 3 8 12 14 21 14 11 0 15 -10 15 -35 0 -19 5 -35 10 -35 6 0 10 16 10 36 0 21 4 33 10 29 6 -3 10 -1 10 4 0 7 -38 11 -105 11 -92 0 -108 3 -125 20 -21 21 -40 26 -40 11z m175 -51 c3 -5 -3 -10 -14 -10 -11 0 -23 -4 -26 -10 -8 -13 -25 -13 -25 1 0 5 6 7 13 3 8 -5 8 -2 -2 9 -12 15 -10 17 17 17 17 0 34 -4 37 -10z"/> <path d="M776 211 c-3 -5 1 -14 9 -21 21 -18 18 -33 -5 -27 -27 7 -26 -10 1 -18 31 -10 46 10 25 34 -9 10 -14 21 -9 23 18 10 93 8 93 -2 0 -5 -11 -10 -25 -10 -25 0 -33 -14 -15 -25 6 -3 10 -1 10 4 0 6 7 11 15 11 8 0 15 -9 15 -20 0 -11 5 -20 11 -20 6 0 10 10 9 23 -4 43 -1 47 40 47 22 0 40 -4 40 -9 0 -6 -12 -9 -27 -8 -22 2 -28 -2 -28 -18 0 -15 7 -20 28 -20 15 1 27 -3 27 -7 0 -4 4 -8 10 -8 5 0 7 13 4 30 -5 22 -2 31 10 36 10 4 23 1 29 -6 9 -10 9 -14 0 -17 -15 -5 12 -53 30 -53 5 0 3 8 -5 18 -27 29 -7 58 41 60 23 2 41 -2 41 -8 0 -5 -11 -10 -23 -10 -13 0 -27 -3 -30 -6 -9 -9 11 -44 25 -44 9 0 9 3 0 12 -18 18 -15 28 8 28 13 0 20 -7 20 -20 0 -11 5 -20 10 -20 6 0 8 13 5 30 -3 17 -1 30 5 30 5 0 10 5 10 10 0 13 -397 14 -404 1z m200 -43 c-20 -11 -44 1 -25 12 6 5 19 6 27 3 12 -5 12 -7 -2 -15z"/> <path d="M1634 213 c4 -4 27 -6 51 -4 39 2 45 0 45 -17 0 -19 -18 -32 -43 -32 -7 0 -3 7 7 15 19 14 18 15 -12 15 l-33 0 20 -21 c13 -14 27 -20 40 -16 12 3 21 1 21 -4 0 -5 5 -9 10 -9 6 0 10 14 10 30 0 17 5 30 10 30 6 0 10 5 10 10 0 6 -31 10 -72 10 -39 0 -68 -3 -64 -7z"/> <path d="M530 355 c0 -19 5 -35 10 -35 6 0 10 16 10 35 0 19 -4 35 -10 35 -5 0 -10 -16 -10 -35z"/> <path d="M482 350 c0 -19 2 -27 5 -17 2 9 2 25 0 35 -3 9 -5 1 -5 -18z"/> <path d="M508 355 c-3 -14 -1 -28 3 -31 5 -3 9 9 9 25 0 38 -6 40 -12 6z"/> <path d="M450 344 c0 -14 4 -23 9 -20 5 3 7 15 4 26 -7 28 -13 25 -13 -6z"/> <path d="M424 345 c4 -24 16 -30 16 -7 0 12 -4 22 -9 22 -5 0 -8 -7 -7 -15z"/> </g> </svg>